<svg xmlns="http://www.w3.org/2000/svg" viewBox="0 0 1024 1024"><title>react-spotify</title><path d="M265.83,686.79l-19.39-4.93C101.91,645.34,19,583.34,19,511.82s82.91-133.52,227.44-170l19.39-4.89,5.46,19.23a966.46,966.46,0,0,0,56,147l4.15,8.75-4.15,8.75a957.85,957.85,0,0,0-56,147ZM237.44,386.68C127.58,417.53,60.17,464.73,60.17,511.82S127.58,606.06,237.44,637A1025.89,1025.89,0,0,1,286,511.82,1017.81,1017.81,0,0,1,237.44,386.68ZM758.17,686.79l-5.46-19.27a960,960,0,0,0-56-146.95l-4.15-8.75,4.15-8.75a962.69,962.69,0,0,0,56-147l5.46-19.23,19.43,4.89C922.09,378.25,1005,440.25,1005,511.82s-82.91,133.52-227.4,170ZM738,511.82A1015.31,1015.31,0,0,1,786.56,637c109.9-30.9,177.27-78.1,177.27-125.14s-67.41-94.25-177.27-125.14A1019.42,1019.42,0,0,1,738,511.82Z" fill="#61dafb"/><path d="M237.15,386.47l-5.46-19.19C191.06,224.07,203.38,121.44,265.5,85.62,326.43,50.45,424.25,92,526.75,197.2l14,14.34-14,14.34a966.87,966.87,0,0,0-99.5,121.89l-5.55,7.93-9.66.82a971.33,971.33,0,0,0-155.5,25.06Zm77.9-272.38c-11,0-20.75,2.38-29,7.11C245.25,144.74,238,226.57,266.16,337A1032.52,1032.52,0,0,1,399,316.42a1021.79,1021.79,0,0,1,84.3-104.51C419.19,149.5,358.51,114.09,315.05,114.09ZM709,950.63h0c-58.54,0-133.72-44.09-211.74-124.2l-14-14.34,14-14.33a966.88,966.88,0,0,0,99.46-121.94l5.55-7.93,9.61-.82a971,971,0,0,0,155.59-25l19.39-4.89,5.5,19.23C832.9,799.52,820.62,902.19,758.5,938A97.84,97.84,0,0,1,709,950.63ZM540.72,811.72c64.09,62.41,124.77,97.82,168.23,97.82h0c11,0,20.75-2.38,28.93-7.1C778.75,878.9,786,797,757.84,686.58A1027.65,1027.65,0,0,1,625,707.17,1015.7,1015.7,0,0,1,540.72,811.72Z" fill="#61dafb"/><path d="M786.85,386.47l-19.39-4.89a965.38,965.38,0,0,0-155.59-25.06l-9.61-.82-5.55-7.93a961,961,0,0,0-99.46-121.89l-14-14.34,14-14.34C599.71,92,697.49,50.49,758.5,85.62c62.12,35.82,74.44,138.45,33.85,281.62ZM625,316.42A1025.11,1025.11,0,0,1,757.84,337C786,226.57,778.75,144.74,737.92,121.2,697.33,97.74,621,133.68,540.72,211.91A1020.06,1020.06,0,0,1,625,316.42ZM315.05,950.63A97.79,97.79,0,0,1,265.5,938c-62.12-35.78-74.44-138.41-33.81-281.58l5.42-19.23,19.39,4.89c47.45,12,99.79,20.38,155.5,25l9.66.82,5.5,7.93a969.73,969.73,0,0,0,99.51,121.94l14,14.33-14,14.34C448.69,906.54,373.51,950.63,315.05,950.63Zm-48.89-264C238,797,245.25,878.9,286.08,902.44c40.55,23.13,116.8-12.53,197.2-90.72A1027.16,1027.16,0,0,1,399,707.17,1025.06,1025.06,0,0,1,266.16,686.58Z" fill="#61dafb"/><path d="M512,712.38c-33.81,0-68.57-1.47-103.37-4.35l-9.65-.82-5.55-7.93Q363.91,656.86,338,612.1t-47.9-91.53L286,511.82l4.11-8.75q22-46.76,47.9-91.54c17-29.41,35.7-58.75,55.46-87.18l5.55-7.93,9.65-.82a1224.54,1224.54,0,0,1,206.78,0l9.61.82,5.51,7.93a1233.43,1233.43,0,0,1,103.4,178.72l4.15,8.75-4.15,8.75a1216.4,1216.4,0,0,1-103.4,178.71L625,707.21l-9.61.82C580.61,710.91,545.81,712.38,512,712.38Zm-90.26-44.53a1193.3,1193.3,0,0,0,180.56,0,1191.73,1191.73,0,0,0,90.22-156,1173.6,1173.6,0,0,0-90.26-156,1192.77,1192.77,0,0,0-180.52,0,1170.15,1170.15,0,0,0-90.26,156A1196.71,1196.71,0,0,0,421.74,667.85Z" fill="#61dafb"/><path d="M512,395c-64.35,0-117,52.65-117,117s52.65,117,117,117,117-52.65,117-117A117,117,0,0,0,512,395Zm53.83,169.06c-2.34,3.5-6.44,4.68-10,2.34-27.5-17-62-20.48-103-11.12-4.08,1.19-7.6-1.75-8.77-5.26-1.17-4.1,1.75-7.6,5.26-8.77,44.46-10,83.08-5.85,113.5,12.87C567,555.87,567.57,560.54,565.83,564.06Zm14-32.17c-2.94,4.09-8.2,5.85-12.3,2.92C536,515.51,488,509.66,451.16,521.36c-4.67,1.17-9.94-1.17-11.11-5.85s1.17-10,5.85-11.13c42.7-12.86,95.35-6.41,131.62,15.81C581,522,582.79,527.79,579.87,531.89ZM581,499.13c-37.45-22.23-100-24.57-135.73-13.45a10.74,10.74,0,0,1-6.44-20.49c41.54-12.29,110-9.95,153.28,15.8a11.31,11.31,0,0,1,4.09,15.21C593.32,500.31,586.3,502,581,499.13Z" fill="#1ed760"/></svg>